<?xml version="1.0" encoding="UTF-8"?>
<svg width="990px" height="818px" viewBox="0 0 990 818" version="1.1" xmlns="http://www.w3.org/2000/svg" xmlns:xlink="http://www.w3.org/1999/xlink">
    <title>Illustration</title>
    <defs>
        <linearGradient x1="50%" y1="0%" x2="50%" y2="100%" id="linearGradient-1">
            <stop stop-color="#AF66FF" offset="0%"></stop>
            <stop stop-color="#7736FF" offset="100%"></stop>
        </linearGradient>
        <path d="M940.986754,461.313117 C836.95161,517.252803 530.996038,694.205974 434.513354,750.064588 C416.345065,760.645137 393.907317,760.645137 375.739027,750.064588 L8.87825545,535.358885 C-5.71417728,526.8193 -1.04783558,510.68597 13.6524895,502.335553 L525.57445,204.287825 C530.935575,201.237392 537.503065,201.237392 542.86419,204.287825 L941.283458,431.316474 C946.719936,434.373872 950.060937,440.156935 950,446.402803 C949.937378,452.648671 946.482642,458.364262 940.986754,461.313117 Z" id="path-2"></path>
        <filter x="-5.3%" y="-5.4%" width="110.5%" height="121.6%" filterUnits="objectBoundingBox" id="filter-3">
            <feOffset dx="0" dy="40" in="SourceAlpha" result="shadowOffsetOuter1"></feOffset>
            <feGaussianBlur stdDeviation="10" in="shadowOffsetOuter1" result="shadowBlurOuter1"></feGaussianBlur>
            <feColorMatrix values="0 0 0 0 0.184313725   0 0 0 0 0.0588235294   0 0 0 0 0.380392157  0 0 0 0.15 0" type="matrix" in="shadowBlurOuter1"></feColorMatrix>
        </filter>
    </defs>
    <g id="QuizShed---UI" stroke="none" stroke-width="1" fill="none" fill-rule="evenodd">
        <g id="Landing-Page" transform="translate(-372.000000, -95.000000)" fill-rule="nonzero">
            <g id="Illustration" transform="translate(392.000000, 95.000000)">
                <g id="Base">
                    <use fill="black" fill-opacity="1" filter="url(#filter-3)" xlink:href="#path-2"></use>
                    <use fill="url(#linearGradient-1)" xlink:href="#path-2"></use>
                </g>
                <g id="Confetti" transform="translate(131.000000, 120.000000)">
                    <path d="M64.6329935,79.5787581 C61.2223442,71.3301482 54.7529378,59.9883096 43.9525482,61.0722616 C39.6680466,61.4892788 36.0120669,64.277988 34.5597281,68.2369195 C32.6649229,73.3658628 34.5597281,78.3626169 35.7236799,83.4122467 C36.021435,84.8663286 37.6184851,90.0481476 36.3191901,91.3436024 C35.0198951,92.6390571 32.3671678,88.3825629 31.284422,87.0077946 C28.7793127,83.1691934 24.931375,80.3504929 20.4569637,79.0764389 C8.3843477,76.4326537 4.97369833,90.1010233 8.08659259,98.746201 C10.1438097,104.483215 19.5366297,102.024495 17.4794127,96.1024158 C16.8568338,94.3575175 15.3680583,90.3125261 17.2628635,88.8055685 C19.1576687,87.298611 20.7817874,89.4136392 22.1352197,90.8148453 C24.1248254,93.4606624 26.2666982,95.9939638 28.5504888,98.4025089 C33.3416391,102.4475 40.4877615,102.923382 44.2503033,97.3449948 C48.012845,91.766608 45.955628,84.1260687 44.4939211,78.2568655 C43.7089304,75.1371989 42.1389489,68.4748602 47.8233645,71.3830239 C51.3693571,73.2072357 53.9138098,78.7591847 55.2943108,82.1167919 C57.5410083,87.827368 66.9608971,85.3686478 64.6329935,79.5787581 Z" id="Path" fill="#FFC400" transform="translate(36.000000, 81.500000) rotate(39.000000) translate(-36.000000, -81.500000) "></path>
                    <path d="M123.490086,0 C108.183193,0 108.156756,24 123.490086,24 C138.823417,24 138.849853,0 123.490086,0 Z" id="Path" fill="#7736FF"></path>
                    <path d="M576.969171,67.6456289 C569.08467,59.5343863 556.632596,71.91755 564.517097,80.0287926 C578.008612,93.8178801 582.801222,113.858291 576.996359,132.21112 C573.706619,143.02611 590.590326,147.649519 593.988818,136.861566 C601.407413,112.428727 594.88836,85.9168759 576.969171,67.6456289 L576.969171,67.6456289 Z" id="Path" fill="#22B573"></path>
                    <path d="M579.410328,248.52 C577.081601,246.311728 573.980224,245.053137 570.73646,245 L569.26354,245 C566.017489,245.042343 562.912195,246.302523 560.589672,248.52 C555.803443,253.205081 555.803443,260.794919 560.589672,265.48 C562.918399,267.688272 566.019776,268.946863 569.26354,269 L570.73646,269 C573.982511,268.957657 577.087805,267.697477 579.410328,265.48 C584.196557,260.794919 584.196557,253.205081 579.410328,248.52 L579.410328,248.52 Z" id="Path" fill="#FEC617"></path>
                    <path d="M111.410328,147.52 C109.081601,145.311728 105.980224,144.053137 102.73646,144 L101.26354,144 C98.0174894,144.042343 94.912195,145.302523 92.5896723,147.52 C87.8034426,152.205081 87.8034426,159.794919 92.5896723,164.48 C94.9183994,166.688272 98.0197765,167.946863 101.26354,168 L102.73646,168 C105.982511,167.957657 109.087805,166.697477 111.410328,164.48 C116.196557,159.794919 116.196557,152.205081 111.410328,147.52 L111.410328,147.52 Z" id="Path" fill="#E54B5D"></path>
                    <path d="M594.528042,321.160216 L560.419593,291.465517 C555.669405,286.844828 548.222147,286.844828 543.471958,291.465517 C539.181755,295.86372 538.515574,304.523536 543.471958,308.839784 L577.580407,338.534483 C582.330595,343.155172 589.777853,343.155172 594.528042,338.534483 C598.818245,334.13628 599.484426,325.476464 594.528042,321.160216 Z" id="Path" fill="#562B7C"></path>
                    <path d="M116.985066,386.873758 C115.550103,387.665361 111.922082,388.047515 113.113373,385.727298 C113.519494,384.935695 115.008607,384.389761 115.82085,383.925718 C117.976658,382.644288 119.907044,381.011689 121.533629,379.094208 C124.672367,375.481408 124.8535,370.139852 121.966825,366.319367 C118.772001,362.306757 113.465345,361.54245 108.700184,361.160297 C106.804949,360.996517 102.44591,361.351374 101.119246,359.57709 C98.8449645,356.574457 103.122779,353.626417 105.478285,352.671033 C111.678409,350.132443 108.970932,339.841599 102.770807,342.407486 C95.3523181,345.437416 88.4211749,351.770243 90.3164094,360.72355 C92.4011673,370.523054 101.87734,370.823317 109.81025,371.860591 C114.68371,372.488414 112.517727,373.334611 109.81025,375.136191 C108.124034,376.18533 106.545877,377.401509 105.099238,378.766648 C102.385931,381.489489 101.277582,385.441888 102.175162,389.193975 C104.584817,398.174579 115.25228,399.948862 122.400022,396.045438 C128.356473,392.797135 123.022741,383.598158 116.985066,386.873758 Z" id="Path" fill="#FFFFFF" transform="translate(107.500000, 370.000000) rotate(59.000000) translate(-107.500000, -370.000000) "></path>
                </g>
                <g id="Trophy-And-Woman" transform="translate(211.000000, 0.000000)">
                    <path d="M151.191736,482.78178 C151.191736,482.78178 137.510424,498.986325 136.242137,507.682765 C134.973849,516.379204 135.918319,559.402271 211.799681,558.997158 C287.681043,558.592044 282.715833,512.733181 281.447545,509.249204 C280.179258,505.765227 264.231219,480 264.231219,480" id="Path" fill="#FA6C00"></path>
                    <ellipse id="Oval" fill="#F7DD02" cx="209.5" cy="489.5" rx="58.5" ry="33.5"></ellipse>
                    <path d="M374.014604,122.993273 C361.750034,126.373489 349.592579,136.162594 339.202507,143.1664 C327.848408,150.846251 316.949544,159.093977 306.23813,167.639162 C296.785307,175.210845 310.121018,188.515374 319.493505,181.024816 C335.113092,168.279139 351.664788,156.744505 369.007018,146.519574 C373.318362,144.031736 379.075747,138.163681 383.869105,143.247526 C386.70763,146.249157 386.359509,153.171839 386.252394,156.768388 C385.643237,166.202699 383.57405,175.482374 380.12011,184.269823 C367.13252,220.127151 338.61338,247.195918 311.91518,272.939641 C303.185377,281.376659 316.440752,294.735272 325.170555,286.325295 C360.73245,251.874137 401.382267,211.636049 404.890255,158.904685 C406.175625,140.435186 396.187231,116.854802 374.014604,122.993273 Z" id="Path" fill="#FA6C00"></path>
                    <path d="M194.23331,427 C194.23331,427 196.600708,449.568931 189.09498,463.449227 C185.258431,470.754958 180.888421,477.767914 176.020485,484.431069 C176.020485,484.431069 174.029718,507 209.298571,507 C244.567424,507 238.622026,485.211163 238.622026,485.211163 C225.886956,468.686929 221.227406,447.326024 225.924163,427" id="Path" fill="#FEC617"></path>
                    <path d="M237.642703,485.136583 C225.173404,468.631515 220.606124,447.301791 225.194062,427 L214.644366,427 C215.330096,453.890187 213.905887,485.486156 197,505.922698 C200.877691,506.667767 204.817069,507.027986 208.762911,506.998305 C243.392287,506.890744 237.642703,485.136583 237.642703,485.136583 Z" id="Path" fill="#FFA407"></path>
                    <path d="M83,203 L83,299.757511 C83,299.757511 84.6485589,432 209.263395,432 C333.87823,432 329.98655,298.701088 329.98655,298.701088 L329.98655,203" id="Path" fill="#FEC617"></path>
                    <path d="M134.290541,385.338889 C112.85202,370.245476 80.0844181,395.311322 57.2365372,396.119897 C41.7064829,396.712853 30.1334756,390.325105 24.3334204,375.689886 C21.948351,369.598616 18.6417775,360.273043 18.9128081,353.588818 C19.2380449,344.64058 26.6100776,339.196171 32.7895756,333.913477 C52.0327494,317.445486 80.1115211,311.435073 96.1565336,291.571064 C103.718288,282.191587 90.3835815,268.769231 82.7405181,278.229566 C68.5656169,295.80261 42.3569564,302.217311 24.6857602,316.20567 C16.3109142,322.83599 6.22857531,330.652221 2.05470383,340.78637 C-2.11916765,350.920518 0.889272185,363.426488 3.81640283,373.749304 C9.61645801,394.287126 22.3277939,410.728164 44.4709952,414.178087 C55.3036174,415.623731 66.3195772,414.834694 76.8320507,411.86017 C84.0685681,410.000446 91.0882611,407.386052 98.1621601,405.068135 C101.306115,404.043939 104.477173,403.019743 107.675335,402.157262 C109.265381,401.690085 110.873496,401.285797 112.49968,400.944399 C116.763895,399.147564 119.031518,401.699069 119.302548,408.598915 C107.322995,410.943784 112.391267,429.136737 124.343718,426.791867 C144.074746,422.991562 151.690707,397.602286 134.290541,385.338889 Z" id="Path" fill="#FA6C00"></path>
                    <path d="M328.986589,298.670398 L328.986589,203 L257.817003,203 C258.410083,265.299523 254.932478,334.370733 214.68392,383.858224 C200.816348,400.699562 183.972587,414.82287 165,425.517644 C179.081498,429.970735 193.775882,432.155693 208.537456,431.991377 C332.868567,431.991377 328.986589,298.670398 328.986589,298.670398 Z" id="Path" fill="#FFA407"></path>
                    <ellipse id="Oval" fill="#F7DD02" cx="206.5" cy="204" rx="123.5" ry="73"></ellipse>
                    <ellipse id="Oval" fill="#FA6C00" cx="208" cy="202" rx="103" ry="58"></ellipse>
                    <path d="M114.295982,121.29256 C111.841389,114.732132 109.629558,108.091373 107.4447,101.397059 C104.369715,91.9714648 100.890127,82.0638801 100,71.9420774 C101.753281,67.2560576 108.092065,63.6679053 112.542701,62.6235923 C118.153199,61.2847295 123.898566,63.6679053 129.563011,63.5607963 C136.980738,63.5607963 142.833998,60.5349664 149.739227,58.5802267 C156.875902,56.8175102 164.375754,57.1618541 171.318067,59.5709851 C184.804843,63.6679053 198.291618,62.2487107 209.431694,53.4925481 C215.743505,48.5119785 220.652691,44.4418356 228.609889,42.3532096 C240.909828,39.1399389 253.61437,41.4160057 261.733408,51.6984719 C269.043241,60.9634024 270.63468,73.1202766 262.866298,82.6529797 C258.928159,87.4728858 253.155819,89.5615117 247.329533,91.2217016 C241.934822,92.7480052 236.809848,95.9344986 231.145402,96.9252571 L230.525011,96.9252571 C225.292142,97.7821293 220.086247,97.4875795 214.826404,99.0138831 C208.271831,100.941845 202.229756,104.181893 195.783078,106.45796 C187.259436,109.48379 178.978556,108.305591 170.212152,107.207723 C159.045102,105.815306 153.137894,109.242795 144.479385,115.562227 L142.914919,116.633317 C136.807419,120.304704 129.768605,122.163106 122.630809,121.988769 C119.837679,121.9916 117.049363,121.758692 114.295982,121.29256 L114.295982,121.29256 Z" id="Path" fill="#180C22"></path>
                    <path d="M317.43282,50.7058948 C319.400807,47.3541476 321.42346,43.7591285 323.118116,40.0559886 C323.748835,33.407559 324.022551,26.7307278 323.93811,20.0536266 C323.474003,17.2521472 323.474003,14.3946476 323.93811,11.5931681 C324.013183,10.5107376 324.585917,9.52208618 325.492173,8.91055352 C326.398429,8.29902087 327.538166,8.1321124 328.584746,8.45766275 C331.105433,9.52408513 332.835406,11.8673621 333.094716,14.5664922 C333.532046,16.7829702 333.860044,19.0264783 334.160708,21.2699865 C337.640278,15.1435133 340.664034,8.77456521 343.207981,2.2136822 C344.92997,-1.92194128 351.653925,0.267506448 349.904603,4.43016015 L348.045949,8.89014625 C349.735924,6.44113646 351.560893,4.08594698 353.512579,1.83525914 C355.86323,-0.867762743 361.493859,0.862171262 359.826536,4.86264365 C357.567258,10.2663889 354.889776,15.4897099 351.817923,20.4861101 C354.332573,17.4226853 356.747002,14.2871799 359.061208,11.079594 C361.794523,7.43051444 367.616484,11.2688055 364.965169,14.9449153 C361.703413,19.4499517 358.268547,23.8198371 354.660571,28.0545714 C356.683224,27.1085137 358.73321,26.2165165 360.81053,25.3515495 C364.992502,23.6216155 368.245147,29.8385658 364.035842,31.5684998 C359.826536,33.2984339 356.081895,35.0553981 352.200588,36.9745436 L351.981922,37.4070271 C345.913963,48.2191146 339.627338,58.887041 333.122049,69.4108062 C330.744065,73.2490973 324.922104,69.4108062 327.218088,65.5454849 L330.197402,60.6800455 C329.115528,60.3884957 328.198762,59.6768591 327.655419,58.7068396 C326.55892,59.4222798 325.151153,59.4755927 324.002537,58.8451761 C322.853921,58.2147596 322.154929,57.0051539 322.188789,55.7064853 C320.75962,56.3542707 319.071829,56.0278506 317.99473,54.8953511 C316.917631,53.7628516 316.691505,52.0769124 317.43282,50.7058948 L317.43282,50.7058948 Z" id="Path" fill="#C09161"></path>
                    <path d="M175.773303,256.704521 C194.742271,260.343989 221.449289,263.498194 248.317516,258.133349 C264.318876,254.780432 279.719849,249.008276 293.993502,241.014372 C294.262184,214.055352 286.14798,187.096331 279.081636,161 L220.240219,176.366641 C216.317458,176.95974 191.625557,220.660311 174,256.623644 L174.591101,256.623644 C174.986461,256.567141 175.389245,256.594696 175.773303,256.704521 L175.773303,256.704521 Z" id="Path" fill="#F7F7F7"></path>
                    <path d="M219.761782,149.432861 C223.298629,131.526901 231.460583,111.143725 224.658955,94.2340355 C225.39353,91.8914512 231.705441,91.3529261 232.521637,90.1681708 L243.159383,86.1830849 C263.483573,85.3872597 282.725152,76.9064069 296.919452,62.4879792 C305.358218,53.8779498 312.745555,44.3164037 318.92952,34 C326.220131,38.2562678 332.717316,43.7210757 338.137318,50.1557538 C341.001753,53.3761933 343.629373,56.7956062 346,60.3877313 C335.552699,81.9287364 315.528706,113.082415 283.425021,125.010747 C283.425021,125.010747 282.282348,136.885226 281.33012,164.430786 C281.33012,164.430786 257.306769,185.971791 219,178.378587 C219.244859,167.715789 219.462511,160.257216 219.761782,149.432861 Z" id="Path" fill="#7736FF"></path>
                    <path d="M76.5199636,202.474429 C81.4361292,199.314852 86.5931561,196.532532 91.9451341,194.152237 C88.1612602,195.272532 84.4045432,196.499522 80.6749832,197.833207 C76.4384927,199.353607 73.7499506,192.978595 77.9592841,191.431521 C83.1915309,189.54658 88.487144,187.875029 93.8461235,186.416867 C91.6464072,186.070109 89.473848,185.670003 87.2741318,185.243224 C82.8746994,184.336319 83.7165661,177.507854 88.1431555,178.388086 C92.5697449,179.268318 96.6432935,179.93516 100.934098,180.468634 L101.341453,180.22857 C106.356444,177.756808 111.398592,175.347285 116.467896,173 C118.24206,180.641284 121.476665,187.882402 126,194.338953 C121.850385,199.269549 117.961795,204.406579 114.349651,209.729673 C113.167816,212.277757 111.571872,214.620061 109.624335,216.664833 C108.949864,217.507808 107.918724,218 106.827165,218 C105.735606,218 104.704465,217.507808 104.029995,216.664833 C102.560997,214.407459 102.46721,211.541573 103.785582,209.196199 C104.681763,207.168999 105.686571,205.141798 106.69138,203.167945 C100.351546,206.282733 94.2521134,209.848735 88.4418824,213.837422 C84.6942177,216.264728 80.2947853,210.796621 84.2053919,208.342641 L88.2789404,205.675272 C85.5241473,206.713981 82.7137558,207.604425 79.8602734,208.342641 C76.4928066,209.356242 72.8809269,204.79504 76.5199636,202.474429 Z" id="Path" fill="#C09161"></path>
                    <path d="M230.029672,90 C230.029672,90 189.858282,131.047825 114,169.215573 C114,169.215573 118.268379,192.95602 128.290965,202 C128.290965,202 215.846767,162.486422 236,127.19875" id="Path" fill="#7736FF"></path>
                    <path d="M259.736635,61.317096 C259.736635,61.317096 268.107068,85.8779446 252.653961,97.0940655 C237.200855,108.310186 216.247945,84.9500904 221.962375,63.0090656 C227.676805,41.0680408 249.890645,40.1947662 259.736635,61.317096 Z" id="Path" fill="#C09161"></path>
                    <path d="M220.33323,93.245089 C222.898443,93.8150914 225.573694,93.0104847 227.410806,91.116442 C229.680972,88.7991807 229.467309,85.5119031 229.494017,82.4940744 C229.287747,78.5057371 231.200468,74.7079258 234.51509,72.524462 C238.547973,69.8299721 243.622462,68.9946802 247.281436,65.599623 C247.655345,65.2493393 248.029255,64.8721108 248.376457,64.4679373 C247.899659,64.9131426 247.380837,65.3102253 246.827402,65.6535128 C240.871555,69.2910741 232.05797,70.1802558 229.280355,71.6083354 C226.50274,73.036415 230.93624,84.1107684 225.968583,88.987795 C221.000926,93.8648217 209.276186,63.3901413 216.059976,55.1180575 C222.843766,46.8459736 245.278348,37.1458101 255,50.8877084 C254.734899,52.117081 254.405034,53.3313239 254.01181,54.5252697 C253.780049,58.2438543 252.418536,61.8001562 250.112466,64.7104414 C246.480201,69.2641292 241.218757,70.2880354 236.438054,73.0633599 C233.366932,74.6164368 231.336283,77.689447 231.096487,81.1468295 C231.301152,84.008097 230.993557,86.8831668 230.188421,89.6344726 C228.411123,93.6119735 224.087481,95.7590813 219.879197,94.7540033 C218.97113,94.4306645 219.425163,93.0295298 220.33323,93.245089 Z" id="Path" fill="#180C22"></path>
                    <path d="M334.970486,267.027333 L403.826831,559.978143 C405.487957,567.019321 394.690639,570.040823 393.109891,562.972667 L324.173169,270.021857 C322.512043,262.980679 333.309361,259.959177 334.890109,267.027333 L334.970486,267.027333 Z" id="Path" fill="#2F0F61"></path>
                    <path d="M268.901062,302.053951 L337.826657,594.978766 C339.489454,602.01932 328.681277,605.040554 327.098938,597.973024 L258.173343,305.021234 C256.510546,297.98068 267.318723,294.959446 268.901062,302.026976 L268.901062,302.053951 Z" id="Path" fill="#2F0F61"></path>
                    <path d="M341.180865,313.367999 L275.536786,349.247929 C269.138462,352.737366 263.393584,343.148075 269.791908,339.632001 L335.463214,303.752071 C341.861538,300.262634 347.606416,309.851925 341.208092,313.367999 L341.180865,313.367999 Z" id="Path" fill="#2F0F61"></path>
                    <path d="M348.219535,353.473883 L285.501798,388.240249 C279.129697,391.765321 273.408365,382.078099 279.780465,378.526117 L342.498202,343.759751 C348.870303,340.234679 354.591635,349.921901 348.219535,353.473883 L348.219535,353.473883 Z" id="Path" fill="#2F0F61"></path>
                    <path d="M354.334425,386.593913 L292.396138,421.239359 C286.10323,424.76856 280.453001,415.069991 286.74591,411.513849 L348.603862,376.760641 C354.89677,373.23144 360.546999,382.930009 354.25409,386.486151 L354.334425,386.593913 Z" id="Path" fill="#2F0F61"></path>
                    <path d="M365.232773,422.554144 L303.461319,457.234427 C297.119558,460.786512 291.425465,451.025056 297.767227,447.445856 L359.538681,412.765573 C365.880442,409.213488 371.574535,418.974944 365.232773,422.554144 Z" id="Path" fill="#2F0F61"></path>
                    <path d="M374.157069,454.541716 L312.445708,489.235328 C306.115647,492.783231 300.43206,483.033269 306.762121,479.458284 L368.554292,444.764672 C374.884353,441.216769 380.56794,450.966731 374.237879,454.541716 L374.157069,454.541716 Z" id="Path" fill="#2F0F61"></path>
                    <path d="M384.208092,492.367999 L318.536786,528.247929 C312.138462,531.737366 306.393584,522.148075 312.791908,518.632001 L378.463214,482.752071 C384.861538,479.262634 390.606416,488.851925 384.208092,492.367999 Z" id="Path" fill="#2F0F61"></path>
                </g>
            </g>
        </g>
    </g>
</svg>